<?xml version="1.0" standalone="no"?>
<!DOCTYPE svg PUBLIC "-//W3C//DTD SVG 20010904//EN"
 "http://www.w3.org/TR/2001/REC-SVG-20010904/DTD/svg10.dtd">
<svg version="1.0" xmlns="http://www.w3.org/2000/svg"
 width="500.000000pt" height="500.000000pt" viewBox="0 0 500.000000 500.000000"
 preserveAspectRatio="xMidYMid meet">

<g transform="translate(0.000000,500.000000) scale(0.100000,-0.100000)"
fill="#000000" stroke="none">
<path d="M1984 4335 c27 -42 20 -85 -24 -144 -63 -83 -65 -132 -7 -175 24 -18
32 -19 69 -9 54 15 100 -3 122 -46 29 -56 19 -109 -32 -163 -30 -33 -52 -35
-76 -9 -30 33 -70 44 -109 32 -56 -19 -117 -69 -117 -97 0 -24 38 -94 52 -94
3 0 15 17 25 38 21 42 32 45 51 11 9 -17 11 -45 7 -99 -9 -103 -8 -125 9 -159
14 -26 14 -30 -1 -35 -8 -4 -30 -4 -48 0 -38 7 -122 -25 -131 -50 -7 -19 -104
-56 -147 -56 -40 -1 -226 -44 -237 -56 -4 -5 5 -58 21 -119 16 -60 29 -118 29
-127 0 -10 -34 -39 -87 -73 -49 -31 -93 -64 -100 -72 -8 -11 -10 -35 -7 -72 6
-52 4 -58 -21 -81 -24 -23 -37 -26 -138 -31 l-112 -6 -380 -181 c-208 -100
-398 -195 -422 -211 -48 -34 -64 -75 -52 -130 4 -19 6 -38 3 -42 -2 -4 7 -41
21 -83 14 -41 25 -92 25 -113 0 -21 3 -55 7 -76 7 -46 7 -46 260 -147 165 -65
185 -76 203 -107 26 -45 109 -83 209 -96 42 -5 189 -36 326 -68 291 -67 323
-74 350 -70 11 1 62 20 112 42 51 21 97 39 103 39 6 0 10 -27 10 -62 0 -56 -9
-83 -73 -233 -41 -93 -70 -171 -66 -173 4 -2 34 9 66 23 84 39 145 63 257 101
l98 33 122 -109 c121 -110 300 -250 318 -250 14 0 138 91 234 172 70 58 94 72
173 98 51 16 104 30 117 30 13 0 85 -31 159 -69 l134 -68 -20 49 c-10 26 -30
71 -45 99 -14 29 -22 55 -17 60 5 5 72 29 148 53 77 24 150 48 162 53 26 10
133 149 133 173 0 10 -9 64 -21 120 -12 59 -19 121 -16 143 4 27 -1 58 -14 93
-40 106 -59 194 -61 281 -2 77 5 114 54 308 30 121 61 258 68 305 10 66 20 95
45 130 17 25 34 53 38 62 8 23 -13 35 -25 14 -11 -20 -32 -21 -47 -2 -9 11 -8
22 5 49 19 40 12 87 -12 87 -11 0 -13 -6 -9 -20 9 -28 -12 -62 -37 -58 -12 2
-24 10 -28 18 -4 8 -14 30 -23 48 -23 46 -21 60 8 74 14 6 25 16 25 21 0 14
-63 -1 -76 -18 -15 -20 -23 -19 -45 8 -25 30 -24 43 6 69 30 26 24 38 -19 38
-41 0 -65 -25 -73 -75 -3 -20 -11 -39 -18 -41 -7 -3 -57 13 -113 35 -55 23
-105 41 -112 41 -33 0 6 25 85 56 50 18 180 70 290 115 110 44 294 114 410
155 124 43 216 81 225 92 9 12 64 34 145 57 185 55 195 60 195 94 0 23 6 30
32 37 27 8 34 15 36 41 2 18 -4 46 -13 63 -14 28 -19 30 -49 24 -20 -3 -36 -1
-40 5 -4 6 -36 11 -72 11 -72 0 -87 13 -64 56 18 33 10 36 -23 10 l-29 -23 26
-51 c28 -56 20 -71 -30 -52 -39 15 -59 13 -45 -4 10 -12 5 -16 -25 -26 -32
-11 -38 -10 -46 4 -5 9 -16 16 -24 16 -8 0 -23 20 -34 45 -20 48 -39 61 -67
51 -15 -6 -14 -9 7 -19 19 -9 26 -22 28 -50 4 -53 -18 -84 -70 -97 -70 -19
-210 -60 -257 -77 -23 -8 -75 -19 -115 -24 -39 -4 -168 -35 -286 -69 -118 -34
-236 -67 -262 -74 -39 -11 -49 -11 -58 -1 -8 9 -8 15 0 20 22 13 9 26 -20 20
-27 -6 -30 -4 -30 18 0 13 7 30 15 37 19 15 20 54 2 69 -8 6 -19 29 -25 51 -7
22 -17 59 -24 81 -12 40 -11 43 15 63 33 27 36 76 7 124 -23 37 -25 63 -8 80
9 9 8 12 -4 12 -25 0 -51 -48 -43 -79 15 -61 16 -79 6 -85 -19 -12 -83 12
-116 44 -26 25 -62 39 -204 80 -226 66 -227 66 -265 13 -36 -49 -43 -51 -56
-19 -18 48 -76 77 -193 96 -69 10 -74 18 -54 90 24 83 23 146 -2 160 -11 5
-27 10 -36 10 -16 0 -16 -2 -1 -25z m232 -372 c-4 -4 -14 1 -22 11 -22 31 -17
43 8 19 12 -13 18 -26 14 -30z m120 -15 c-9 -13 -23 -36 -32 -53 -9 -16 -35
-57 -58 -90 -51 -75 -56 -85 -106 -220 -23 -60 -41 -126 -41 -145 0 -35 -18
-105 -25 -98 -2 2 0 17 5 34 4 16 4 44 0 63 -6 28 1 59 42 170 28 74 56 144
62 156 14 25 159 205 165 205 2 0 -3 -10 -12 -22z m2125 -124 c8 -10 22 -14
40 -10 21 4 29 0 39 -19 11 -20 11 -27 0 -40 -7 -8 -18 -15 -25 -15 -6 0 -26
-7 -44 -16 -42 -21 -63 -6 -42 28 10 16 10 23 2 26 -6 2 -11 17 -11 33 0 32
19 39 41 13z m-56 -54 c-9 -15 -36 -25 -175 -66 -121 -36 -140 -39 -140 -25 0
4 21 14 48 21 121 32 247 71 256 80 12 12 20 5 11 -10z m-2368 -51 c12 -12 8
-34 -10 -57 -8 -11 -14 -6 -27 20 -11 22 -12 35 -5 40 15 11 29 10 42 -3z
m1543 -189 c0 -5 -12 -10 -27 -9 l-28 1 25 8 c14 4 26 8 28 9 1 1 2 -3 2 -9z
m-190 -31 c-12 -8 -8 -9 15 -5 l30 5 -30 -13 c-20 -9 -32 -11 -36 -4 -7 12
-159 -30 -159 -43 0 -5 -7 -5 -17 -2 -10 4 -14 2 -10 -4 8 -12 -38 -27 -53
-18 -6 4 -10 2 -10 -4 0 -10 -65 -33 -105 -37 -11 -1 -35 -5 -52 -9 -25 -6
-33 -4 -33 6 0 10 43 25 133 48 72 19 173 47 222 62 101 31 129 35 105 18z
m-1320 -204 c0 -8 -4 -15 -10 -15 -5 0 -7 7 -4 15 4 8 8 15 10 15 2 0 4 -7 4
-15z m-245 -4 c-13 -13 -183 -61 -215 -61 -14 0 -54 -9 -90 -20 -36 -11 -68
-16 -73 -11 -13 13 110 51 143 44 27 -5 57 2 185 40 63 19 61 19 50 8z m1336
-232 c185 -73 325 -153 422 -241 18 -16 18 -17 -2 -27 -13 -7 -18 -18 -15 -29
4 -10 2 -13 -3 -7 -4 6 -15 11 -23 10 -11 0 -15 -14 -16 -58 -1 -31 2 -57 7
-57 4 0 6 -7 3 -15 -4 -8 -10 -12 -15 -9 -5 3 -9 -4 -9 -16 0 -13 4 -19 11
-14 8 5 10 -3 5 -27 -3 -19 -7 -40 -8 -47 -1 -7 -7 -11 -15 -8 -19 8 -17 -34
3 -48 12 -9 13 -17 4 -36 -10 -25 -10 -24 -5 3 3 16 2 26 -3 23 -14 -8 -31 33
-37 89 -2 28 -9 67 -14 88 -5 20 -7 37 -5 37 2 0 -7 13 -22 29 -15 18 -60 43
-117 65 -51 20 -114 48 -142 61 l-50 25 -39 112 c-22 62 -41 119 -44 126 -7
20 21 14 129 -29z m-1687 -206 c7 -26 -5 -42 -30 -43 -6 0 -21 -11 -34 -25
-13 -14 -19 -25 -15 -25 12 0 -92 -106 -130 -132 -21 -15 -14 -5 19 30 47 48
50 55 48 99 l-3 48 63 37 c35 21 66 38 69 38 4 0 10 -12 13 -27z m2076 -184
c0 -5 -4 -9 -8 -9 -5 0 -9 7 -9 15 0 8 4 12 9 9 4 -3 8 -9 8 -15z m0 -76 c-11
-17 -11 -17 -6 0 3 10 7 26 7 35 1 15 2 15 6 0 2 -10 -1 -25 -7 -35z m-2330 2
c-8 -10 -29 -15 -64 -14 l-51 2 52 6 c28 4 55 10 59 14 14 13 17 7 4 -8z m264
-215 c8 -36 20 -84 25 -107 9 -35 7 -48 -11 -89 l-21 -49 -14 40 c-16 44 -83
275 -83 285 0 4 14 27 32 51 l32 44 13 -55 c7 -30 19 -84 27 -120z m2053 108
c-3 -7 -5 -2 -5 12 0 14 2 19 5 13 2 -7 2 -19 0 -25z m-2717 -8 c-8 -5 -19
-10 -25 -10 -5 0 -3 5 5 10 8 5 20 10 25 10 6 0 3 -5 -5 -10z m2703 -85 c-3
-9 -8 -14 -10 -11 -3 3 -2 9 2 15 9 16 15 13 8 -4z m-3153 -109 c0 -2 -7 -7
-16 -10 -8 -3 -12 -2 -9 4 6 10 25 14 25 6z m1013 -110 l28 -84 -20 -48 c-26
-69 -53 -85 -133 -85 -37 0 -86 5 -110 12 -25 6 -70 9 -108 5 -51 -4 -71 -2
-88 10 -12 8 -22 19 -22 23 0 5 19 21 43 36 23 16 83 66 133 112 85 77 95 83
135 84 24 0 53 4 64 9 43 19 50 12 78 -74z m55 -181 c-6 -14 -13 -23 -15 -21
-5 5 15 46 22 46 3 0 -1 -11 -7 -25z m-220 -90 c50 -4 95 -12 98 -17 4 -7 -8
-8 -32 -5 -22 4 -68 9 -104 13 -36 3 -72 10 -80 16 -12 7 -11 8 5 4 11 -2 62
-8 113 -11z m1916 -217 c4 -24 3 -38 -4 -38 -5 0 -10 19 -10 42 0 49 5 47 14
-4z m-854 -623 c48 -41 78 -61 84 -55 6 6 15 10 21 10 5 0 4 -4 -4 -9 -18 -12
-3 -34 17 -26 9 3 13 3 9 -1 -6 -6 41 -54 53 -54 3 0 4 18 2 40 -4 39 -3 40
27 40 16 0 47 -11 67 -25 34 -23 38 -37 4 -15 -20 12 -54 -18 -40 -35 8 -9 6
-14 -4 -18 -9 -4 -18 -2 -21 4 -13 20 -25 -4 -25 -52 0 -27 -4 -49 -9 -49 -14
0 -131 93 -240 190 l-104 94 34 12 c19 7 39 13 44 13 6 0 44 -29 85 -64z m101
-2 c13 -16 12 -17 -3 -4 -17 13 -22 21 -14 21 2 0 10 -8 17 -17z m-35 -15
c-10 -6 -22 -6 -26 -2 -5 5 3 10 18 11 22 1 24 0 8 -9z m229 -107 c15 -9 16
-11 3 -7 -12 3 -18 0 -18 -9 0 -9 6 -12 18 -8 9 3 14 3 10 -1 -5 -7 -27 -13
-52 -15 -4 -1 -6 -7 -3 -13 3 -8 -5 -14 -22 -15 l-26 -1 33 26 c35 30 40 42
16 42 -8 0 -13 4 -10 9 8 12 25 9 51 -8z"/>
<path d="M3507 2563 c-4 -3 -7 -11 -7 -17 0 -6 5 -5 12 2 6 6 9 14 7 17 -3 3
-9 2 -12 -2z"/>
<path d="M1359 2740 c-13 -10 -19 -19 -13 -20 6 0 19 9 29 20 23 26 14 26 -16
0z"/>
<path d="M3628 3036 c-17 -24 -15 -36 7 -36 10 0 35 40 35 55 0 14 -27 1 -42
-19z"/>
</g>
</svg>
